<svg xmlns="http://www.w3.org/2000/svg" xmlns:xlink="http://www.w3.org/1999/xlink" zoomAndPan="magnify" preserveAspectRatio="xMidYMid meet" version="1.0" viewBox="40.85 140.35 293.3 93.66"><defs><g/><clipPath id="017fd01088"><path d="M 40.847656 172.523438 L 334.152344 172.523438 L 334.152344 202.476562 L 40.847656 202.476562 Z M 40.847656 172.523438 " clip-rule="nonzero"/></clipPath></defs><g fill="#122620" fill-opacity="1"><g transform="translate(61.645852, 232.008969)"><g><path d="M 81.550781 -89.796875 L 3.992188 -89.796875 L 3.992188 -52.015625 L 4.789062 -52.015625 C 25.144531 -87.269531 25.277344 -87.402344 28.203125 -87.402344 L 29.667969 -87.402344 L 29.667969 -8.25 L 22.75 -0.796875 L 22.75 0 L 62.527344 0 L 62.527344 -0.796875 L 55.609375 -8.25 L 55.609375 -87.402344 L 57.339844 -87.402344 C 59.601562 -87.402344 60.265625 -87.269531 80.753906 -52.015625 L 81.550781 -52.015625 Z M 81.550781 -89.796875 "/></g></g></g><g fill="#122620" fill-opacity="1"><g transform="translate(142.528751, 232.008969)"><g><path d="M 45.097656 1.996094 C 50.820312 1.996094 86.339844 -5.988281 86.339844 -44.964844 C 86.339844 -70.90625 68.511719 -91.660156 44.832031 -91.660156 C 38.980469 -91.660156 3.457031 -83.679688 3.457031 -44.699219 C 3.457031 -18.757812 21.019531 1.996094 45.097656 1.996094 Z M 60.664062 -5.855469 C 51.882812 -3.191406 39.644531 -17.5625 30.199219 -42.4375 C 20.753906 -67.316406 22.082031 -81.550781 29 -83.8125 C 37.25 -86.207031 48.292969 -74.367188 57.605469 -51.085938 C 67.980469 -25.277344 67.847656 -8.25 60.664062 -5.855469 Z M 60.664062 -5.855469 "/></g></g></g><g fill="#122620" fill-opacity="1"><g transform="translate(228.200773, 232.008969)"><g><path d="M 42.703125 -30.996094 C 68.378906 -30.996094 82.878906 -42.96875 82.878906 -62.394531 C 82.878906 -84.742188 66.382812 -89.796875 38.847656 -89.796875 L 4.390625 -89.796875 L 4.390625 -89 L 11.574219 -82.082031 L 11.441406 -8.25 L 4.523438 -0.796875 L 4.523438 0 L 44.300781 0 L 44.300781 -0.796875 L 37.382812 -8.25 L 37.382812 -30.996094 Z M 40.308594 -87.402344 C 51.617188 -87.402344 56.9375 -82.214844 56.9375 -60.929688 C 56.9375 -37.914062 51.21875 -33.390625 40.976562 -33.390625 L 37.382812 -33.390625 L 37.382812 -87.402344 Z M 40.308594 -87.402344 "/></g></g></g><g clip-path="url(#017fd01088)"><path fill="#fbfaf9" d="M 40.847656 172.523438 L 334.152344 172.523438 L 334.152344 202.476562 L 40.847656 202.476562 Z M 40.847656 172.523438 " fill-opacity="1" fill-rule="nonzero"/></g><g fill="#b68d40" fill-opacity="1"><g transform="translate(52.843759, 190.125045)"><g><path d="M 10.21875 0.25 C 10.972656 0.25 11.792969 -0.0625 12.234375 -0.503906 L 11.703125 -1.585938 C 11.527344 -1.347656 11.238281 -1.195312 11 -1.195312 C 10.648438 -1.195312 10.445312 -1.398438 10.28125 -1.671875 L 9.652344 -2.769531 C 9.4375 -3.171875 9.160156 -3.484375 8.796875 -3.648438 L 8.796875 -3.664062 C 10.433594 -3.914062 11.425781 -4.859375 11.425781 -6.203125 C 11.425781 -7.929688 10.082031 -8.960938 7.828125 -8.960938 L 0.628906 -8.960938 L 0.628906 0 L 3.160156 0 L 3.160156 -3.222656 L 5.914062 -3.222656 C 6.542969 -3.222656 7.085938 -2.894531 7.425781 -2.316406 L 8.027344 -1.144531 C 8.457031 -0.441406 9.0625 0.25 10.21875 0.25 Z M 3.160156 -4.746094 L 3.160156 -7.375 L 7.136719 -7.375 C 8.21875 -7.375 8.886719 -6.871094 8.886719 -6.054688 C 8.886719 -5.261719 8.21875 -4.746094 7.136719 -4.746094 Z M 3.160156 -4.746094 "/></g></g></g><g fill="#b68d40" fill-opacity="1"><g transform="translate(75.134296, 190.125045)"><g><path d="M 0.628906 0 L 9.953125 0 L 9.953125 -1.648438 L 3.082031 -1.648438 L 3.082031 -3.863281 L 9.324219 -3.863281 L 9.324219 -5.3125 L 3.082031 -5.3125 L 3.082031 -7.3125 L 9.828125 -7.3125 L 9.828125 -8.960938 L 0.628906 -8.960938 Z M 0.628906 0 "/></g></g></g><g fill="#b68d40" fill-opacity="1"><g transform="translate(95.400385, 190.125045)"><g><path d="M 0.0234375 0 L 2.65625 0 L 3.511719 -1.761719 L 8.546875 -1.761719 L 9.402344 0 L 12.03125 0 L 7.539062 -8.960938 L 4.605469 -8.960938 Z M 4.078125 -3.285156 L 6.027344 -7.324219 L 6.054688 -7.324219 L 7.980469 -3.285156 Z M 4.078125 -3.285156 "/></g></g></g><g fill="#b68d40" fill-opacity="1"><g transform="translate(117.527455, 190.125045)"><g><path d="M 0.628906 0 L 8.773438 0 L 8.773438 -1.898438 L 3.160156 -1.898438 L 3.160156 -8.960938 L 0.628906 -8.960938 Z M 0.628906 0 "/></g></g></g><g fill="#b68d40" fill-opacity="1"><g transform="translate(136.510982, 190.125045)"><g><path d="M 3.851562 0 L 6.378906 0 L 6.378906 -7.125 L 10.132812 -7.125 L 10.132812 -8.960938 L 0.0898438 -8.960938 L 0.0898438 -7.125 L 3.851562 -7.125 Z M 3.851562 0 "/></g></g></g><g fill="#b68d40" fill-opacity="1"><g transform="translate(156.789648, 190.125045)"><g><path d="M 6.847656 0.316406 C 10.683594 0.316406 13.265625 -1.625 13.265625 -4.480469 C 13.265625 -7.335938 10.683594 -9.273438 6.847656 -9.273438 C 3.019531 -9.273438 0.441406 -7.335938 0.441406 -4.480469 C 0.441406 -1.625 3.019531 0.316406 6.847656 0.316406 Z M 6.847656 -1.523438 C 4.542969 -1.523438 2.96875 -2.71875 2.96875 -4.480469 C 2.96875 -6.242188 4.542969 -7.4375 6.847656 -7.4375 C 9.160156 -7.4375 10.734375 -6.242188 10.734375 -4.480469 C 10.734375 -2.71875 9.160156 -1.523438 6.847656 -1.523438 Z M 6.847656 -1.523438 "/></g></g></g><g fill="#b68d40" fill-opacity="1"><g transform="translate(180.551369, 190.125045)"><g><path d="M 10.21875 0.25 C 10.972656 0.25 11.792969 -0.0625 12.234375 -0.503906 L 11.703125 -1.585938 C 11.527344 -1.347656 11.238281 -1.195312 11 -1.195312 C 10.648438 -1.195312 10.445312 -1.398438 10.28125 -1.671875 L 9.652344 -2.769531 C 9.4375 -3.171875 9.160156 -3.484375 8.796875 -3.648438 L 8.796875 -3.664062 C 10.433594 -3.914062 11.425781 -4.859375 11.425781 -6.203125 C 11.425781 -7.929688 10.082031 -8.960938 7.828125 -8.960938 L 0.628906 -8.960938 L 0.628906 0 L 3.160156 0 L 3.160156 -3.222656 L 5.914062 -3.222656 C 6.542969 -3.222656 7.085938 -2.894531 7.425781 -2.316406 L 8.027344 -1.144531 C 8.457031 -0.441406 9.0625 0.25 10.21875 0.25 Z M 3.160156 -4.746094 L 3.160156 -7.375 L 7.136719 -7.375 C 8.21875 -7.375 8.886719 -6.871094 8.886719 -6.054688 C 8.886719 -5.261719 8.21875 -4.746094 7.136719 -4.746094 Z M 3.160156 -4.746094 "/></g></g></g><g fill="#b68d40" fill-opacity="1"><g transform="translate(202.841906, 190.125045)"><g><path d="M 5.839844 0.289062 C 8.898438 0.289062 10.910156 -0.929688 10.898438 -2.71875 C 10.898438 -4.253906 9.679688 -5.058594 6.820312 -5.386719 L 4.945312 -5.625 C 3.664062 -5.777344 3.109375 -6.054688 3.121094 -6.53125 C 3.121094 -7.1875 4.140625 -7.613281 5.5625 -7.625 C 7.035156 -7.625 8.480469 -7.109375 9.324219 -6.34375 L 10.195312 -7.789062 C 9.226562 -8.671875 7.476562 -9.25 5.550781 -9.25 C 2.644531 -9.25 0.65625 -8.179688 0.640625 -6.355469 C 0.640625 -4.871094 1.761719 -4.117188 4.355469 -3.8125 L 6.242188 -3.5625 C 7.777344 -3.371094 8.433594 -3.03125 8.433594 -2.503906 C 8.433594 -1.851562 7.464844 -1.410156 5.964844 -1.410156 C 4.066406 -1.410156 2.125 -2.152344 1.269531 -3.195312 L 0.25 -1.710938 C 1.269531 -0.542969 3.523438 0.289062 5.839844 0.289062 Z M 5.839844 0.289062 "/></g></g></g><g fill="#b68d40" fill-opacity="1"><g transform="translate(224.051068, 190.125045)"><g/></g></g><g fill="#b68d40" fill-opacity="1"><g transform="translate(237.413933, 190.125045)"><g><path d="M 0.628906 0 L 6.632812 0 C 10.082031 0 11.992188 -1.597656 11.992188 -4.480469 C 11.992188 -7.363281 10.082031 -8.960938 6.632812 -8.960938 L 0.628906 -8.960938 Z M 3.097656 -1.773438 L 3.097656 -7.1875 L 6.316406 -7.1875 C 8.382812 -7.1875 9.527344 -6.21875 9.527344 -4.480469 C 9.527344 -2.742188 8.382812 -1.773438 6.316406 -1.773438 Z M 3.097656 -1.773438 "/></g></g></g><g fill="#b68d40" fill-opacity="1"><g transform="translate(259.905657, 190.125045)"><g><path d="M 5.976562 0.25 C 9.386719 0.25 11.464844 -1.296875 11.464844 -4.089844 L 11.464844 -8.960938 L 8.933594 -8.960938 L 8.933594 -4.214844 C 8.933594 -2.492188 7.789062 -1.636719 5.992188 -1.636719 C 4.191406 -1.636719 3.046875 -2.492188 3.046875 -4.214844 L 3.046875 -8.960938 L 0.503906 -8.960938 L 0.503906 -4.089844 C 0.503906 -1.296875 2.578125 0.25 5.976562 0.25 Z M 5.976562 0.25 "/></g></g></g><g fill="#b68d40" fill-opacity="1"><g transform="translate(281.932123, 190.125045)"><g><path d="M 0.628906 0 L 8.003906 0 C 10.09375 0 11.363281 -0.957031 11.363281 -2.480469 C 11.363281 -3.5 10.710938 -4.304688 9.652344 -4.566406 L 9.652344 -4.59375 C 10.558594 -4.882812 11.113281 -5.613281 11.113281 -6.519531 C 11.113281 -8.027344 9.878906 -8.960938 7.851562 -8.960938 L 0.628906 -8.960938 Z M 3.160156 -5.246094 L 3.160156 -7.476562 L 7.085938 -7.476562 C 8.003906 -7.476562 8.582031 -7.058594 8.582031 -6.367188 C 8.582031 -5.675781 8.003906 -5.246094 7.085938 -5.246094 Z M 3.160156 -1.484375 L 3.160156 -3.902344 L 7.1875 -3.902344 C 8.191406 -3.902344 8.835938 -3.4375 8.835938 -2.691406 C 8.835938 -1.949219 8.191406 -1.484375 7.1875 -1.484375 Z M 3.160156 -1.484375 "/></g></g></g><g fill="#b68d40" fill-opacity="1"><g transform="translate(303.644264, 190.125045)"><g><path d="M 0.0234375 0 L 2.65625 0 L 3.511719 -1.761719 L 8.546875 -1.761719 L 9.402344 0 L 12.03125 0 L 7.539062 -8.960938 L 4.605469 -8.960938 Z M 4.078125 -3.285156 L 6.027344 -7.324219 L 6.054688 -7.324219 L 7.980469 -3.285156 Z M 4.078125 -3.285156 "/></g></g></g><g fill="#b68d40" fill-opacity="1"><g transform="translate(325.771323, 190.125045)"><g><path d="M 0.628906 0 L 3.144531 0 L 3.144531 -8.960938 L 0.628906 -8.960938 Z M 0.628906 0 "/></g></g></g></svg>