<svg xmlns="http://www.w3.org/2000/svg" xmlns:xlink="http://www.w3.org/1999/xlink" zoomAndPan="magnify" preserveAspectRatio="xMidYMid meet" version="1.0" viewBox="44.17 138.81 297.43 79.5"><defs><g/><clipPath id="ec459208be"><path d="M 166.613281 145.628906 L 340.597656 145.628906 L 340.597656 186.878906 L 166.613281 186.878906 Z M 166.613281 145.628906 " clip-rule="nonzero"/></clipPath><clipPath id="d161e3828f"><path d="M 44.171875 173 L 47 173 L 47 217 L 44.171875 217 Z M 44.171875 173 " clip-rule="nonzero"/></clipPath><clipPath id="fdd0924616"><path d="M 152 173 L 154.421875 173 L 154.421875 217 L 152 217 Z M 152 173 " clip-rule="nonzero"/></clipPath><clipPath id="d44ed9e4ae"><path d="M 59 138.816406 L 139 138.816406 L 139 218.316406 L 59 218.316406 Z M 59 138.816406 " clip-rule="nonzero"/></clipPath></defs><g clip-path="url(#ec459208be)"><path stroke-linecap="butt" transform="matrix(0.749647, 0, 0, 0.744501, 166.612844, 145.627798)" fill="none" stroke-linejoin="miter" d="M 0.000583329 0.00148907 L 232.089125 0.00148907 L 232.089125 55.407735 L 0.000583329 55.407735 Z M 0.000583329 0.00148907 " stroke="#cf9a44" stroke-width="2" stroke-opacity="1" stroke-miterlimit="4"/></g><g fill="#e7bf6b" fill-opacity="1"><g transform="translate(177.198083, 175.047953)"><g><path d="M 14.875 -20.25 L 14.875 -17.640625 L 9.4375 -17.640625 L 9.4375 0 L 6.71875 0 L 6.71875 -17.640625 L 1.421875 -17.640625 L 1.421875 -20.25 Z M 14.875 -20.25 "/></g></g></g><g fill="#e7bf6b" fill-opacity="1"><g transform="translate(193.49186, 175.047953)"><g><path d="M 1.65625 -10.109375 C 1.65625 -11.953125 2.117188 -13.664062 3.046875 -15.25 C 3.984375 -16.84375 5.238281 -18.109375 6.8125 -19.046875 C 8.394531 -19.992188 10.117188 -20.46875 11.984375 -20.46875 C 13.828125 -20.46875 15.539062 -19.992188 17.125 -19.046875 C 18.71875 -18.109375 19.984375 -16.84375 20.921875 -15.25 C 21.867188 -13.664062 22.34375 -11.953125 22.34375 -10.109375 C 22.34375 -8.242188 21.875 -6.515625 20.9375 -4.921875 C 20.007812 -3.335938 18.742188 -2.082031 17.140625 -1.15625 C 15.546875 -0.238281 13.828125 0.21875 11.984375 0.21875 C 10.117188 0.21875 8.390625 -0.234375 6.796875 -1.140625 C 5.210938 -2.054688 3.957031 -3.300781 3.03125 -4.875 C 2.113281 -6.457031 1.65625 -8.203125 1.65625 -10.109375 Z M 4.453125 -10.078125 C 4.453125 -8.703125 4.785156 -7.425781 5.453125 -6.25 C 6.128906 -5.070312 7.050781 -4.132812 8.21875 -3.4375 C 9.382812 -2.75 10.660156 -2.40625 12.046875 -2.40625 C 13.421875 -2.40625 14.679688 -2.742188 15.828125 -3.421875 C 16.984375 -4.109375 17.890625 -5.046875 18.546875 -6.234375 C 19.210938 -7.421875 19.546875 -8.710938 19.546875 -10.109375 C 19.546875 -11.503906 19.207031 -12.800781 18.53125 -14 C 17.863281 -15.195312 16.953125 -16.140625 15.796875 -16.828125 C 14.640625 -17.515625 13.367188 -17.859375 11.984375 -17.859375 C 10.597656 -17.859375 9.328125 -17.507812 8.171875 -16.8125 C 7.015625 -16.113281 6.101562 -15.164062 5.4375 -13.96875 C 4.78125 -12.78125 4.453125 -11.484375 4.453125 -10.078125 Z M 4.453125 -10.078125 "/></g></g></g><g fill="#e7bf6b" fill-opacity="1"><g transform="translate(217.484591, 175.047953)"><g><path d="M 8.34375 -20.25 C 10.539062 -20.25 12.257812 -19.695312 13.5 -18.59375 C 14.75 -17.488281 15.375 -15.945312 15.375 -13.96875 C 15.375 -12.832031 15.144531 -11.769531 14.6875 -10.78125 C 14.226562 -9.789062 13.488281 -8.988281 12.46875 -8.375 C 11.457031 -7.757812 10.175781 -7.453125 8.625 -7.453125 L 5.625 -7.453125 L 5.625 0 L 2.90625 0 L 2.90625 -20.25 Z M 8.625 -10.078125 C 9.59375 -10.078125 10.378906 -10.28125 10.984375 -10.6875 C 11.597656 -11.101562 12.035156 -11.601562 12.296875 -12.1875 C 12.554688 -12.78125 12.6875 -13.359375 12.6875 -13.921875 C 12.6875 -14.890625 12.367188 -15.75 11.734375 -16.5 C 11.097656 -17.257812 10.109375 -17.640625 8.765625 -17.640625 L 5.625 -17.640625 L 5.625 -10.078125 Z M 8.625 -10.078125 "/></g></g></g><g fill="#e7bf6b" fill-opacity="1"><g transform="translate(234.142324, 175.047953)"><g/></g></g><g fill="#e7bf6b" fill-opacity="1"><g transform="translate(242.989121, 175.047953)"><g><path d="M 2.90625 -20.25 L 8.453125 -20.25 C 10.972656 -20.25 13.054688 -19.75 14.703125 -18.75 C 16.359375 -17.75 17.5625 -16.457031 18.3125 -14.875 C 19.070312 -13.300781 19.453125 -11.640625 19.453125 -9.890625 C 19.453125 -7.921875 18.992188 -6.1875 18.078125 -4.6875 C 17.171875 -3.1875 15.953125 -2.03125 14.421875 -1.21875 C 12.890625 -0.40625 11.226562 0 9.4375 0 L 2.90625 0 Z M 8.90625 -2.625 C 10.394531 -2.625 11.726562 -2.914062 12.90625 -3.5 C 14.082031 -4.09375 15 -4.945312 15.65625 -6.0625 C 16.320312 -7.1875 16.65625 -8.523438 16.65625 -10.078125 C 16.65625 -11.660156 16.3125 -13.019531 15.625 -14.15625 C 14.9375 -15.300781 14.015625 -16.164062 12.859375 -16.75 C 11.710938 -17.34375 10.476562 -17.640625 9.15625 -17.640625 L 5.625 -17.640625 L 5.625 -2.625 Z M 8.90625 -2.625 "/></g></g></g><g fill="#e7bf6b" fill-opacity="1"><g transform="translate(264.09824, 175.047953)"><g><path d="M 5.375 -7.171875 C 5.375 -6.273438 5.585938 -5.46875 6.015625 -4.75 C 6.441406 -4.03125 7.023438 -3.457031 7.765625 -3.03125 C 8.503906 -2.613281 9.320312 -2.40625 10.21875 -2.40625 C 11.15625 -2.40625 12 -2.609375 12.75 -3.015625 C 13.507812 -3.429688 14.101562 -4.003906 14.53125 -4.734375 C 14.957031 -5.460938 15.171875 -6.273438 15.171875 -7.171875 L 15.171875 -20.25 L 17.84375 -20.25 L 17.84375 -7.078125 C 17.84375 -5.640625 17.503906 -4.363281 16.828125 -3.25 C 16.148438 -2.144531 15.234375 -1.289062 14.078125 -0.6875 C 12.921875 -0.0820312 11.632812 0.21875 10.21875 0.21875 C 8.820312 0.21875 7.539062 -0.0820312 6.375 -0.6875 C 5.21875 -1.289062 4.304688 -2.144531 3.640625 -3.25 C 2.984375 -4.363281 2.65625 -5.640625 2.65625 -7.078125 L 2.65625 -20.25 L 5.375 -20.25 Z M 5.375 -7.171875 "/></g></g></g><g fill="#e7bf6b" fill-opacity="1"><g transform="translate(284.591449, 175.047953)"><g><path d="M 11.921875 -10.5 C 13.078125 -10.050781 13.992188 -9.410156 14.671875 -8.578125 C 15.347656 -7.753906 15.6875 -6.789062 15.6875 -5.6875 C 15.6875 -4.394531 15.367188 -3.320312 14.734375 -2.46875 C 14.109375 -1.625 13.285156 -1 12.265625 -0.59375 C 11.253906 -0.195312 10.144531 0 8.9375 0 L 2.90625 0 L 2.90625 -20.25 L 8.140625 -20.25 C 10.210938 -20.25 11.816406 -19.820312 12.953125 -18.96875 C 14.097656 -18.125 14.671875 -16.847656 14.671875 -15.140625 C 14.671875 -14.078125 14.429688 -13.148438 13.953125 -12.359375 C 13.484375 -11.566406 12.804688 -10.945312 11.921875 -10.5 Z M 5.625 -11.390625 L 8.703125 -11.390625 C 9.753906 -11.390625 10.546875 -11.6875 11.078125 -12.28125 C 11.609375 -12.882812 11.875 -13.65625 11.875 -14.59375 C 11.875 -15.613281 11.554688 -16.375 10.921875 -16.875 C 10.285156 -17.382812 9.398438 -17.640625 8.265625 -17.640625 L 5.625 -17.640625 Z M 8.8125 -2.515625 C 9.988281 -2.515625 10.957031 -2.78125 11.71875 -3.3125 C 12.488281 -3.84375 12.875 -4.625 12.875 -5.65625 C 12.875 -6.71875 12.457031 -7.5 11.625 -8 C 10.800781 -8.507812 9.800781 -8.765625 8.625 -8.765625 L 5.625 -8.765625 L 5.625 -2.515625 Z M 8.8125 -2.515625 "/></g></g></g><g fill="#e7bf6b" fill-opacity="1"><g transform="translate(301.921087, 175.047953)"><g><path d="M 13.53125 -5.3125 L 5.734375 -5.3125 L 3.578125 0 L 0.890625 0 L 9.75 -21.078125 L 9.90625 -21.078125 L 18.765625 0 L 15.625 0 Z M 12.59375 -7.671875 L 9.71875 -15.0625 L 6.71875 -7.671875 Z M 12.59375 -7.671875 "/></g></g></g><g fill="#e7bf6b" fill-opacity="1"><g transform="translate(321.54641, 175.047953)"><g><path d="M 5.625 -20.25 L 5.625 0 L 2.90625 0 L 2.90625 -20.25 Z M 5.625 -20.25 "/></g></g></g><g fill="#d7af4d" fill-opacity="1"><g transform="translate(185.269725, 213.416691)"><g><path d="M 6.96875 -6.875 L 3.984375 -6.875 L 3.984375 0 L 1.828125 0 L 1.828125 -17 L 6.59375 -17 C 8.257812 -17 9.519531 -16.566406 10.375 -15.703125 C 11.238281 -14.835938 11.671875 -13.566406 11.671875 -11.890625 C 11.671875 -10.835938 11.4375 -9.921875 10.96875 -9.140625 C 10.507812 -8.359375 9.851562 -7.769531 9 -7.375 L 12.296875 -0.140625 L 12.296875 0 L 10 0 Z M 3.984375 -8.71875 L 6.578125 -8.71875 C 7.472656 -8.71875 8.1875 -9.003906 8.71875 -9.578125 C 9.25 -10.148438 9.515625 -10.921875 9.515625 -11.890625 C 9.515625 -14.066406 8.523438 -15.15625 6.546875 -15.15625 L 3.984375 -15.15625 Z M 3.984375 -8.71875 "/></g></g></g><g fill="#d7af4d" fill-opacity="1"><g transform="translate(205.885534, 213.416691)"><g><path d="M 9.984375 -7.859375 L 3.96875 -7.859375 L 3.96875 -1.828125 L 10.984375 -1.828125 L 10.984375 0 L 1.828125 0 L 1.828125 -17 L 10.859375 -17 L 10.859375 -15.15625 L 3.96875 -15.15625 L 3.96875 -9.6875 L 9.984375 -9.6875 Z M 9.984375 -7.859375 "/></g></g></g><g fill="#d7af4d" fill-opacity="1"><g transform="translate(225.683834, 213.416691)"><g><path d="M 9.765625 -4.4375 L 4.015625 -4.4375 L 2.703125 0 L 0.5 0 L 5.984375 -17 L 7.8125 -17 L 13.296875 0 L 11.109375 0 Z M 4.578125 -6.28125 L 9.21875 -6.28125 L 6.890625 -14.015625 Z M 4.578125 -6.28125 "/></g></g></g><g fill="#d7af4d" fill-opacity="1"><g transform="translate(247.385756, 213.416691)"><g><path d="M 3.984375 -1.828125 L 10.65625 -1.828125 L 10.65625 0 L 1.828125 0 L 1.828125 -17 L 3.984375 -17 Z M 3.984375 -1.828125 "/></g></g></g><g fill="#d7af4d" fill-opacity="1"><g transform="translate(266.670194, 213.416691)"><g><path d="M 11.78125 -15.15625 L 7.296875 -15.15625 L 7.296875 0 L 5.15625 0 L 5.15625 -15.15625 L 0.703125 -15.15625 L 0.703125 -17 L 11.78125 -17 Z M 11.78125 -15.15625 "/></g></g></g><g fill="#d7af4d" fill-opacity="1"><g transform="translate(287.040745, 213.416691)"><g><path d="M 12.890625 -7.015625 C 12.890625 -4.691406 12.394531 -2.898438 11.40625 -1.640625 C 10.414062 -0.390625 9.007812 0.234375 7.1875 0.234375 C 5.4375 0.234375 4.050781 -0.375 3.03125 -1.59375 C 2.019531 -2.8125 1.492188 -4.535156 1.453125 -6.765625 L 1.453125 -9.96875 C 1.453125 -12.238281 1.953125 -14.015625 2.953125 -15.296875 C 3.960938 -16.585938 5.367188 -17.234375 7.171875 -17.234375 C 8.960938 -17.234375 10.359375 -16.613281 11.359375 -15.375 C 12.359375 -14.144531 12.867188 -12.390625 12.890625 -10.109375 Z M 10.765625 -9.984375 C 10.765625 -11.785156 10.46875 -13.125 9.875 -14 C 9.289062 -14.875 8.390625 -15.3125 7.171875 -15.3125 C 5.992188 -15.3125 5.101562 -14.867188 4.5 -13.984375 C 3.894531 -13.097656 3.59375 -11.789062 3.59375 -10.0625 L 3.59375 -7.015625 C 3.59375 -5.273438 3.890625 -3.945312 4.484375 -3.03125 C 5.085938 -2.125 5.988281 -1.671875 7.1875 -1.671875 C 8.394531 -1.671875 9.285156 -2.085938 9.859375 -2.921875 C 10.429688 -3.765625 10.734375 -5.054688 10.765625 -6.796875 Z M 10.765625 -9.984375 "/></g></g></g><g fill="#d7af4d" fill-opacity="1"><g transform="translate(309.326602, 213.416691)"><g><path d="M 6.96875 -6.875 L 3.984375 -6.875 L 3.984375 0 L 1.828125 0 L 1.828125 -17 L 6.59375 -17 C 8.257812 -17 9.519531 -16.566406 10.375 -15.703125 C 11.238281 -14.835938 11.671875 -13.566406 11.671875 -11.890625 C 11.671875 -10.835938 11.4375 -9.921875 10.96875 -9.140625 C 10.507812 -8.359375 9.851562 -7.769531 9 -7.375 L 12.296875 -0.140625 L 12.296875 0 L 10 0 Z M 3.984375 -8.71875 L 6.578125 -8.71875 C 7.472656 -8.71875 8.1875 -9.003906 8.71875 -9.578125 C 9.25 -10.148438 9.515625 -10.921875 9.515625 -11.890625 C 9.515625 -14.066406 8.523438 -15.15625 6.546875 -15.15625 L 3.984375 -15.15625 Z M 3.984375 -8.71875 "/></g></g></g><g clip-path="url(#d161e3828f)"><path fill="#cf9a44" d="M 45.308594 173.5625 L 44.75 195.210938 L 44.191406 216.863281 L 46.425781 216.863281 L 45.867188 195.210938 Z M 45.308594 173.5625 " fill-opacity="1" fill-rule="nonzero"/></g><path fill="#cf9a44" d="M 50.125 175.945312 L 51.679688 196.527344 L 53.234375 217.105469 L 54.316406 216.976562 L 55.378906 216.867188 L 52.75 196.40625 Z M 50.125 175.945312 " fill-opacity="1" fill-rule="nonzero"/><path fill="#cf9a44" d="M 54.941406 178.328125 L 58.609375 197.835938 L 62.277344 217.347656 L 63.324219 217.089844 L 64.335938 216.871094 L 59.636719 197.597656 Z M 54.941406 178.328125 " fill-opacity="1" fill-rule="nonzero"/><g clip-path="url(#fdd0924616)"><path fill="#cf9a44" d="M 153.839844 195.210938 L 153.28125 173.5625 L 152.722656 195.210938 L 152.164062 216.863281 L 154.398438 216.863281 Z M 153.839844 195.210938 " fill-opacity="1" fill-rule="nonzero"/></g><path fill="#cf9a44" d="M 143.210938 216.867188 L 144.28125 216.984375 L 145.355469 217.105469 L 146.910156 196.527344 L 148.464844 175.945312 L 145.835938 196.40625 Z M 143.210938 216.867188 " fill-opacity="1" fill-rule="nonzero"/><path fill="#cf9a44" d="M 138.953125 197.597656 L 134.253906 216.871094 L 135.285156 217.109375 L 136.3125 217.347656 L 139.980469 197.835938 L 143.648438 178.328125 Z M 138.953125 197.597656 " fill-opacity="1" fill-rule="nonzero"/><g clip-path="url(#d44ed9e4ae)"><path fill="#cf9a44" d="M 132.066406 198.792969 L 125.554688 216.195312 L 125.863281 201.042969 L 126.125 200.464844 L 134.019531 183.09375 L 125.914062 198.59375 L 126.074219 190.574219 L 129.203125 185.476562 L 126.085938 189.964844 L 126.644531 162.488281 L 124.410156 162.488281 L 125 191.53125 L 120.648438 197.792969 L 120.75 192.429688 L 124.386719 187.859375 L 120.761719 191.917969 L 121.398438 157.75 L 119.164062 157.75 L 119.820312 192.96875 L 115.375 197.941406 L 116.152344 153.015625 L 113.917969 153.015625 L 114.707031 198.691406 L 111.414062 202.375 L 110.007812 203.949219 L 110.90625 148.285156 L 108.671875 148.285156 L 109.578125 204.433594 L 104.660156 209.933594 L 105.660156 143.546875 L 103.425781 143.546875 L 104.429688 210.1875 L 99.320312 215.90625 L 100.414062 138.8125 L 98.179688 138.8125 L 99.273438 215.90625 L 94.164062 210.1875 L 95.167969 143.546875 L 92.933594 143.546875 L 93.933594 209.933594 L 89.015625 204.433594 L 89.921875 148.285156 L 87.683594 148.285156 L 88.582031 203.949219 L 87.175781 202.375 L 83.882812 198.691406 L 84.671875 153.015625 L 82.4375 153.015625 L 83.214844 197.941406 L 78.769531 192.96875 L 79.425781 157.75 L 77.191406 157.75 L 77.828125 191.917969 L 74.203125 187.859375 L 77.839844 192.429688 L 77.941406 197.792969 L 73.589844 191.53125 L 74.179688 162.488281 L 71.945312 162.488281 L 72.503906 189.964844 L 69.386719 185.476562 L 72.515625 190.574219 L 72.675781 198.59375 L 64.570312 183.09375 L 72.464844 200.464844 L 72.726562 201.042969 L 73.035156 216.195312 L 66.523438 198.792969 L 59.757812 180.710938 L 65.535156 199.148438 L 71.316406 217.589844 L 72.335938 217.203125 L 73.050781 216.953125 L 73.0625 217.601562 L 73.074219 216.945312 L 73.285156 216.871094 L 73.085938 216.339844 L 73.367188 202.453125 L 78.226562 213.136719 L 78.308594 217.597656 L 78.386719 213.492188 L 80.355469 217.828125 L 81.34375 217.316406 L 82.242188 216.875 L 78.457031 209.640625 L 78.625 200.523438 L 79.390625 201.769531 L 83.390625 208.289062 L 83.550781 217.597656 L 83.703125 208.800781 L 88.789062 217.085938 L 88.796875 217.597656 L 88.804688 217.109375 L 89.394531 218.070312 L 90.347656 217.429688 L 91.191406 216.875 L 88.863281 213.523438 L 88.976562 206.425781 L 93.972656 212.703125 L 94.046875 217.597656 L 94.117188 212.882812 L 98.4375 218.3125 L 99.292969 217.597656 L 100.148438 218.3125 L 104.46875 212.882812 L 104.539062 217.597656 L 104.613281 212.703125 L 109.605469 206.425781 L 109.722656 213.523438 L 107.390625 216.875 L 108.292969 217.472656 L 109.191406 218.070312 L 109.78125 217.109375 L 109.789062 217.597656 L 109.796875 217.085938 L 114.882812 208.800781 L 115.03125 217.597656 L 115.191406 208.289062 L 119.195312 201.769531 L 119.957031 200.523438 L 120.128906 209.640625 L 116.34375 216.875 L 117.285156 217.351562 L 118.230469 217.828125 L 120.199219 213.492188 L 120.277344 217.597656 L 120.359375 213.136719 L 125.21875 202.453125 L 125.5 216.339844 L 125.300781 216.871094 L 125.511719 216.949219 L 125.523438 217.597656 L 125.539062 216.957031 L 126.285156 217.230469 L 127.273438 217.585938 L 133.050781 199.148438 L 138.832031 180.707031 Z M 73.417969 200.007812 L 73.578125 192.296875 L 77.972656 199.457031 L 78.152344 209.050781 Z M 80.292969 201.179688 L 78.660156 198.828125 L 78.757812 193.578125 L 83.238281 199.210938 L 83.347656 205.582031 Z M 83.753906 206.164062 L 83.859375 199.992188 L 86.320312 203.089844 L 88.613281 205.96875 L 88.730469 213.335938 Z M 109.855469 213.335938 L 109.972656 205.96875 L 112.269531 203.089844 L 114.730469 199.992188 L 114.835938 206.164062 Z M 118.296875 201.179688 L 115.242188 205.578125 L 115.351562 199.210938 L 119.832031 193.578125 L 119.929688 198.828125 Z M 120.4375 209.054688 L 120.617188 199.457031 L 125.011719 192.296875 L 125.171875 200.007812 Z M 120.4375 209.054688 " fill-opacity="1" fill-rule="nonzero"/></g></svg>